<svg width="248" height="48" viewBox="0 0 248 48" fill="none" xmlns="http://www.w3.org/2000/svg">
<path d="M21.648 13.88C24.9547 13.88 27.472 14.7973 29.2 16.632C30.928 18.4667 31.792 21.0693 31.792 24.44C31.792 27.7893 30.928 30.392 29.2 32.248C27.472 34.0827 24.9547 35 21.648 35H11.952V13.88H21.648ZM20.848 30.232C22.4267 30.232 23.5253 29.7627 24.144 28.824C24.7627 27.864 25.072 26.4027 25.072 24.44C25.072 22.4773 24.7627 21.0267 24.144 20.088C23.5253 19.128 22.4267 18.648 20.848 18.648H18.48V30.232H20.848ZM54.109 35H47.389L46.205 30.616H39.773L38.557 35H32.029L39.133 13.88H46.973L54.109 35ZM40.861 26.392H45.149L43.005 18.52L40.861 26.392ZM75.856 13.88V35H68.688L62.928 24.536L61.584 21.688H61.52L61.648 25.848V35H55.952V13.88H63.088L68.848 24.344L70.224 27.192H70.256L70.128 23.032V13.88H75.856ZM86.2925 13.88V35H79.7645V13.88H86.2925ZM90.202 35V13.88H107.226V18.776H96.73V22.2H105.114V26.744H96.73V30.104H107.642V35H90.202ZM116.824 30.104H126.872V35H110.296V13.88H116.824V30.104ZM141.017 35L134.969 13.88H142.009L144.985 29.816L148.313 13.88H154.073L157.561 29.72L160.473 13.88H167.257L161.209 35H154.169L152.121 25.976L151.257 20.696H151.161L150.297 25.976L148.249 35H141.017ZM178.463 13.56C180.66 13.56 182.537 13.9973 184.095 14.872C185.673 15.7253 186.879 16.9627 187.711 18.584C188.564 20.2053 188.991 22.1573 188.991 24.44C188.991 26.7227 188.564 28.6747 187.711 30.296C186.879 31.9173 185.673 33.1653 184.095 34.04C182.537 34.8933 180.66 35.32 178.463 35.32C176.287 35.32 174.399 34.8933 172.799 34.04C171.22 33.1653 170.004 31.9173 169.151 30.296C168.297 28.6747 167.871 26.7227 167.871 24.44C167.871 22.1573 168.297 20.2053 169.151 18.584C170.004 16.9627 171.22 15.7253 172.799 14.872C174.399 13.9973 176.287 13.56 178.463 13.56ZM178.463 18.552C177.588 18.552 176.863 18.776 176.287 19.224C175.732 19.6507 175.305 20.2907 175.007 21.144C174.729 21.9973 174.591 23.096 174.591 24.44C174.591 25.7627 174.729 26.8613 175.007 27.736C175.305 28.5893 175.732 29.24 176.287 29.688C176.863 30.1147 177.588 30.328 178.463 30.328C179.316 30.328 180.031 30.1147 180.607 29.688C181.183 29.24 181.609 28.5893 181.887 27.736C182.164 26.8613 182.303 25.7627 182.303 24.44C182.303 23.096 182.164 21.9973 181.887 21.144C181.609 20.2907 181.183 19.6507 180.607 19.224C180.031 18.776 179.316 18.552 178.463 18.552ZM212.044 13.88V35H204.876L199.116 24.536L197.772 21.688H197.708L197.836 25.848V35H192.14V13.88H199.276L205.036 24.344L206.412 27.192H206.444L206.316 23.032V13.88H212.044ZM224.784 35.32C222.928 35.32 221.275 34.9147 219.824 34.104C218.373 33.2933 217.232 32.0773 216.4 30.456C215.568 28.8347 215.152 26.8507 215.152 24.504C215.152 22.2 215.579 20.2373 216.432 18.616C217.307 16.9733 218.555 15.7253 220.176 14.872C221.797 13.9973 223.717 13.56 225.936 13.56C228.432 13.56 230.437 14.008 231.952 14.904C233.488 15.8 234.672 17.2187 235.504 19.16L229.424 21.432C229.211 20.3867 228.805 19.6507 228.208 19.224C227.611 18.776 226.864 18.552 225.968 18.552C225.051 18.552 224.283 18.776 223.664 19.224C223.067 19.6507 222.619 20.3013 222.32 21.176C222.021 22.0507 221.872 23.1387 221.872 24.44C221.872 25.848 222.032 27 222.352 27.896C222.693 28.792 223.205 29.4533 223.888 29.88C224.571 30.2853 225.413 30.488 226.416 30.488C226.928 30.488 227.397 30.4347 227.824 30.328C228.251 30.2 228.624 30.0187 228.944 29.784C229.285 29.5493 229.541 29.2613 229.712 28.92C229.883 28.5573 229.968 28.1413 229.968 27.672V27.512H225.808V23.32H235.472V35H231.088L230.576 29.656L231.6 30.68C231.216 32.1733 230.448 33.3253 229.296 34.136C228.144 34.9253 226.64 35.32 224.784 35.32Z" fill="#333333"/>
<rect x="1.5" y="1.5" width="245" height="45" stroke="#333333" stroke-width="3"/>
</svg>
